PathFileType	4	(X/Y/Z)	Patient4_TMGait_0pt6_02_right_25.trc.trc
DataRate	CameraRate	NumFrames	NumMarkers	Units	OrigDataRate	OrigDataStartFrame	OrigNumFrames
82.840236686390	82.840236686390	4	33	mm	82.840236686390	36	       141
Frame#	Time	Sacral			L.Shoulder			Chest			R.Shoulder			Neck			R.ASIS			L.ASIS			R.Thigh.Superior			R.Thigh.Lateral			R.Thigh.Inferior			R.Patella			L.Thigh.Superior			L.Thigh.Lateral			L.Thigh.Inferior			L.Patella			L.Shank.Superior			L.Shank.Lateral			L.Shank.Inferior			R.Shank.Superior			R.Shank.Lateral			R.Shank.Inferior			R.Heel			R.Midfoot.Superior			R.Midfoot.Lateral			R.Toe			L.Heel			L.Midfoot.Lateral			L.Midfoot.Superior			L.Toe			L.Elbow			L.Wrist			R.Elbow			R.Wrist			
		X1	Y1	Z1	X2	Y2	Z2	X3	Y3	Z3	X4	Y4	Z4	X5	Y5	Z5	X6	Y6	Z6	X7	Y7	Z7	X8	Y8	Z8	X9	Y9	Z9	X10	Y10	Z10	X11	Y11	Z11	X12	Y12	Z12	X13	Y13	Z13	X14	Y14	Z14	X15	Y15	Z15	X16	Y16	Z16	X17	Y17	Z17	X18	Y18	Z18	X19	Y19	Z19	X20	Y20	Z20	X21	Y21	Z21	X22	Y22	Z22	X23	Y23	Z23	X24	Y24	Z24	X25	Y25	Z25	X26	Y26	Z26	X27	Y27	Z27	X28	Y28	Z28	X29	Y29	Z29	X30	Y30	Z30	X31	Y31	Z31	X32	Y32	Z32	X33	Y33	Z33	

36	30.402500000000	858.797635104327	1003.567925902770	453.858010964574	1050.908376852896	1430.558955500798	272.673552670613	1156.941191212382	1348.124251418944	425.054766492775	1086.602231111398	1425.440719303978	602.152961710433	1063.583105405753	1485.501704950492	423.908433847069	1091.648904799682	933.218617349793	559.299938913124	1061.128691316351	955.999660527301	286.379728496821	1152.104852587702	748.558634717470	529.555775641798	1084.625057832319	631.935414909063	591.149802927711	1167.224485037490	590.272790984934	509.876588298485	1178.608244708875	503.920108906126	517.034751078837	1084.247305848056	731.052080598397	302.530449744087	978.659469300176	626.172895705325	245.179390972276	1059.658434713349	532.941806316360	294.845426227973	1045.081443445469	450.021771253731	293.410871975741	977.131644538005	395.900029843441	292.816273580436	834.859254711233	349.610671996754	254.458533545337	828.007575111402	221.597562490501	312.474641202011	1163.667141094897	412.946732492978	525.301090469414	1106.021929059193	300.123647077826	585.707945828190	1163.684889357113	212.368107081525	523.854840879018	1050.564087031681	40.684184214474	491.633319472619	1220.576720212145	98.686697573968	524.521444363104	1134.978708880024	36.951566619654	565.452208443133	1342.272162214623	48.962270030220	550.467140023179	643.179408543256	144.197543812939	363.492107297465	698.265212952062	103.673143434910	279.870307734125	801.973223671715	121.156537355693	294.200764005434	886.973425748365	31.497213458122	261.998436427495	989.099807943803	1087.061170380968	146.324809284474	1207.388802017989	949.490150065048	154.486501987807	1002.255125695096	1088.249335825914	722.125766670841	1060.877601516706	832.519297018743	715.852207262719	
37	30.414571428571	859.733256706698	1004.858300013754	457.153241300433	1051.397571937250	1431.786552036670	275.064774520158	1158.148380033054	1349.229066469794	426.865290544351	1088.822498214306	1426.492286305533	604.331787975168	1064.891218224575	1486.597272867556	426.354529945909	1092.870056118208	934.435184696069	561.160733303572	1061.171237876421	956.931771753941	288.561847068270	1151.031656665175	747.718559100172	531.731671098981	1082.286624923208	632.295452716857	593.039367543971	1163.817747708093	589.662122239463	511.162766396791	1174.302108333632	503.335701938823	518.029998993252	1090.109502533228	733.973198988932	304.654935099543	988.996091919097	626.220395559085	246.319651333969	1072.963455703366	534.812127735769	296.080402741613	1059.462856161205	450.529652398831	293.821831886848	989.361385685861	396.719516181848	293.369440493391	845.395734220189	355.665644719129	254.968285134196	833.984088978891	227.985307092318	312.733787514793	1158.735286668549	412.625684989107	526.362511830307	1100.397172913078	300.056719821842	586.376659680796	1157.365789590614	212.113852632578	524.318819066930	1043.418927860336	40.579558965130	491.757849485641	1213.306097541296	98.836336991638	524.718169229986	1127.781125193038	36.904286104451	565.607217919892	1335.029045194986	49.287492847732	550.683485562213	646.361952030214	160.380382061267	363.731971548159	698.957085388166	116.426931086796	280.066785034512	803.718151684085	127.265714728574	294.345708471696	882.173982431687	30.829011139848	262.126852041550	985.947943690531	1088.294594229256	150.422703470826	1196.957321810959	938.122437333897	157.424659076857	1010.770527055299	1087.847266212241	725.563348737142	1080.031636699770	834.949175431525	716.246022695581	
38	30.426642857143	860.527134577214	1005.957174698670	460.379642300922	1051.501002536926	1432.723118772709	277.288677130790	1159.175015386605	1350.127909945299	428.411300899553	1090.989551546162	1427.316399033263	606.337190728531	1065.991620676401	1487.466893465341	428.624943145705	1093.905940093162	935.396067756903	562.841069042685	1060.984017835223	957.458985814852	290.587548548427	1149.623286326539	746.679770628232	533.882478106645	1079.724127854293	632.510218570769	594.958420190470	1160.130125410537	588.938152679039	512.439558333149	1169.750162198619	502.689741033662	519.077165250902	1095.949982940958	737.023130088443	306.899865926815	999.544854553956	626.529131822298	247.461928586323	1086.274772781210	537.127968028996	297.615285055619	1074.026954175351	451.559367647530	294.657648110169	1002.048816519975	397.893365983901	294.150490219725	856.694517831513	361.777650173287	255.541644713436	840.915236303190	234.574810997642	313.157147267455	1153.619239372275	412.225065133023	527.416458529523	1094.692184158916	299.871116929121	587.046949479736	1150.989604733769	211.798031997239	524.756072645557	1036.248617865884	40.500094943570	491.851840192188	1206.072551310954	98.897754433175	524.851117691247	1120.556956745362	36.828536541846	565.731109095809	1327.794923242596	49.386983720418	550.853377008242	650.998743495046	176.327170320897	363.994576790882	701.192255599453	129.332367949806	280.286965430433	806.675192567235	133.840056397452	294.660936127853	878.747575871879	30.671189420432	262.312228125622	982.792879564673	1089.223251663532	154.174953379968	1185.895099100504	927.146998638753	160.505708116165	1019.404744164732	1087.428617900278	729.019718571057	1099.593401832804	837.991051740009	716.359357954523	
39	30.438714285714	861.152079772495	1006.884365488865	463.477848057825	1051.287635233194	1433.383698942191	279.323275584818	1160.033329156664	1350.798798935785	429.690323177015	1093.117900977847	1427.924881308198	608.148161055496	1066.925471858267	1488.125319702236	430.687798881738	1094.727366807236	936.133678055124	564.399528422821	1060.600534369427	957.645729518381	292.489018663636	1148.005771643249	745.606915732542	535.964494467367	1077.094738321979	632.635569188650	596.878041389633	1156.371416990310	588.183449274658	513.724454851086	1165.138929156590	502.027781075005	520.182410891703	1101.639619103510	740.217848461650	309.291641486760	1010.126066663746	627.181387680265	248.612383127934	1099.389522891868	539.940160392439	299.409476486760	1088.592310710348	453.171027812771	295.834091299806	1015.034098287511	399.467010350349	295.108908230178	868.580327396137	367.840603809395	256.185548084082	848.791731105032	241.184877044678	313.708831833244	1148.476805973437	411.775082465366	528.456298998779	1089.034542551126	299.622030819532	587.751682236039	1144.623340495987	211.438034015224	525.168374025448	1029.050607426965	40.453540043123	491.931178104998	1198.877418304758	98.885409629821	524.938651000985	1113.308892929353	36.741298257448	565.837743348129	1320.569234646029	49.279095376282	550.987261060853	657.071269295724	191.434943612153	364.258900240596	705.088042743663	141.863769652311	280.522603078940	810.990805903119	140.651138356752	295.110433862240	877.149931444699	31.176272838444	262.569703429329	979.599248669229	1089.850811175283	157.606493063279	1174.181013719079	916.584520429532	163.673441582213	1028.203267009956	1086.988803598725	732.420663650806	1119.472311237502	841.680751363947	716.153832583207	
